<?xml version="1.0" encoding="UTF-8"?>
<svg width="32" height="32" version="1.1" xml:space="preserve" xmlns="http://www.w3.org/2000/svg" xmlns:xlink="http://www.w3.org/1999/xlink"><defs><linearGradient id="linearGradient3230" x1=".32577" x2="17.307" y1="1004.4" y2="1022.6" gradientTransform="matrix(1.4222 0 0 1.4879 -1.0898 -483.31)" gradientUnits="userSpaceOnUse"><stop stop-color="#eef3f6" offset="0"/><stop stop-color="#abc3d2" offset="1"/></linearGradient><linearGradient id="linearGradient3232" x1=".32577" x2="12.67" y1="1004.4" y2="1028.3" gradientTransform="matrix(1.4222 0 0 1.4879 -1.0898 -483.31)" gradientUnits="userSpaceOnUse"><stop stop-color="#6c8ad0" offset="0"/><stop stop-color="#203567" offset="1"/></linearGradient><linearGradient id="linearGradient2" x1="13.926" x2="28.967" y1="1004.6" y2="1018.4" gradientUnits="userSpaceOnUse"><stop stop-color="#fcefda" offset="0"/><stop stop-color="#f8d7a0" offset="1"/></linearGradient></defs><g transform="translate(0 -1004.4)"><rect x="10.493" y="1004.9" width="20.008" height="15.001" fill="url(#linearGradient2)" stroke="#ae8247" stroke-linecap="round" stroke-width=".99999"/><g><path d="m10.341 1005.3 10.19 6.6034 9.9369-6.4708" fill="none" stroke="#ae8247" stroke-linejoin="round" stroke-width=".99999px"/><path d="m16.279 1034.4s0.88717 0.5977 1.2812 0.8437c0.50615 0.3159 1.0338 0.419 1.625 0.5 0.82578 0.1161 2.2721 0.1161 2.2721 0.1161l0.04045-18.505-1.8883-1.7963" fill="none" stroke="#bbb" stroke-opacity=".75" stroke-width="1px"/><path d="m15.006 1011.3-0.01581 5.0625h4.8702m-18.86-5.0028v22.055c1.2134-3.3482 6.4261-5.2409 9.5234-3.5088 2.3055 1.2372 1.4984 1.8475 4.6901 3.7132 1.8959 0.8983 3.271 0.719 4.7969 0.7255l-0.01138-17.709-5.2522-5.272z" fill="url(#linearGradient3230)" stroke="url(#linearGradient3232)" stroke-width="2"/></g><g fill="none"><g stroke="#6080cc"><path d="m12 1026.9h4"/><g><path d="m4 1014.9h7"/><path d="m4 1018.9h12"/><path d="m4 1016.9h7"/><path d="m4 1020.9h12"/><path d="m4 1022.9h12"/><path d="m4 1024.9h12"/></g></g><path d="m31.5 1005.3-0.0015 15.522-9.5284 3e-4" stroke="#bbb" stroke-opacity=".75" stroke-width="1px"/></g></g></svg>
