<?xml version="1.0" encoding="UTF-8"?>
<svg width="64px" height="64px" version="1.1" xmlns="http://www.w3.org/2000/svg" xmlns:osb="http://www.openswatchbook.org/uri/2009/osb" xmlns:xlink="http://www.w3.org/1999/xlink">
 <defs>
  <linearGradient id="linearGradient2141">
   <stop stop-color="#9e7640" offset="0"/>
   <stop stop-color="#deb887" offset="1"/>
  </linearGradient>
  <linearGradient id="linearGradient3770" x1="59.011" x2="26.491" y1="59.334" y2="39.322" gradientTransform="matrix(.87833 0 0 .875 5.7452 -26.205)" gradientUnits="userSpaceOnUse">
   <stop stop-color="#f9deb0" offset="0"/>
   <stop stop-color="#fcefda" offset="1"/>
  </linearGradient>
  <linearGradient id="linearGradient3778" x1="55.545" x2="21" y1="63.273" y2="32" gradientTransform="matrix(.87833 0 0 .875 5.7452 -26.205)" gradientUnits="userSpaceOnUse" xlink:href="#linearGradient2141"/>
  <linearGradient id="linearGradient4660" x1="63.815" x2="45.454" y1="63.398" y2="34.539" gradientTransform="matrix(.45704 0 0 .87828 33.933 -24.603)" gradientUnits="userSpaceOnUse">
   <stop stop-color="#545454" stop-opacity=".37647" offset="0"/>
   <stop stop-opacity="0" offset="1"/>
  </linearGradient>
  <linearGradient id="linearGradient3784-3">
   <stop stop-opacity="0" offset="0"/>
   <stop stop-color="#545454" stop-opacity=".37647" offset="1"/>
  </linearGradient>
  <linearGradient id="linearGradient1493" x1="39.846" x2="30.753" y1="19.744" y2="1.119" gradientTransform="matrix(.88463 0 0 .88463 7.3828 .00017367)" gradientUnits="userSpaceOnUse" xlink:href="#linearGradient2141"/>
  <linearGradient id="linearGradient1509" x1="38.514" x2="29.049" y1="20.935" y2=".83807" gradientTransform="matrix(.88463 0 0 .88463 7.3828 .00017367)" gradientUnits="userSpaceOnUse" xlink:href="#linearGradient2141"/>
  <linearGradient id="linearGradient1519" x1="39.002" x2="37.879" y1="3.8506" y2="22.103" gradientTransform="matrix(.88463 0 0 .88463 7.3828 .00017367)" gradientUnits="userSpaceOnUse" xlink:href="#linearGradient3784-3"/>
  <linearGradient id="linearGradient3228" x1="43.246" x2="43.41" y1="1010.7" y2="1052" gradientTransform="matrix(.99907 0 0 .98066 -2.7659 -967.51)" gradientUnits="userSpaceOnUse" xlink:href="#linearGradient3784-3"/>
  <linearGradient id="linearGradient3230" x1="4.2501" x2="42.709" y1="1003.5" y2="1043.1" gradientTransform="matrix(.97081 0 0 .97042 -3.6407 -958.08)" gradientUnits="userSpaceOnUse">
   <stop stop-color="#eef3f6" offset="0"/>
   <stop stop-color="#abc3d2" offset="1"/>
  </linearGradient>
  <linearGradient id="linearGradient3232" x1="4.2501" x2="37.46" y1="1003.5" y2="1051.5" gradientTransform="matrix(.97081 0 0 .97042 -3.6407 -958.08)" gradientUnits="userSpaceOnUse">
   <stop stop-color="#6c8ad0" offset="0"/>
   <stop stop-color="#203567" offset="1"/>
  </linearGradient>
 </defs>
 <g>
  <rect x="19" y="1" width="42" height="28" fill="url(#linearGradient3770)" stroke="url(#linearGradient3778)" stroke-dashoffset="8.55" stroke-width="2"/>
  <g fill="none">
   <path d="m40.976 31h22.021l3e-3 -28" stroke="url(#linearGradient4660)" stroke-linecap="square" stroke-width="2"/>
   <g>
    <path d="m21.496 2.9714 15.995 13.958c0.91068 0.7947 1.6406 1.2647 2.5994 1.2351 1.1271-0.03481 1.712-0.36808 2.9215-1.1487l18.675-15.061" stroke="url(#linearGradient1519)" stroke-width="1.7693"/>
    <path d="m19.357 1.5334 17.642 12.711c0.87146 0.62788 1.6219 1.2011 2.5702 1.2207 0.98866 0.02046 1.8348-0.55292 2.7301-1.1608l18.564-12.605" stroke="url(#linearGradient1493)" stroke-width="1.327"/>
    <path d="m19.712 1.7141 17.137 13.83c0.91703 0.74007 1.6586 1.1673 2.6185 1.2037 1.0191 0.03873 1.9567-0.36999 2.8687-1.0632l18.235-13.86" stroke="url(#linearGradient1509)" stroke-width="1.327"/>
    <path d="m27.364 19.1v9.4687h11.287m-35.417-9.6253v39.927c2.2783-6.38 11.297-8.9823 17.112-5.6815 4.3288 2.3574 3.5821 4.6158 9.575 8.1711 3.8284 1.6518 6.9023 1.2983 8.8408 1.2983l-0.11165-33.779-11.68-9.9355z" stroke="url(#linearGradient3228)" stroke-width="2.4678"/>
   </g>
  </g>
  <path d="m25.268 17.657v9.4979h11.117m-34.885-9.6549v40.049c2.2441-6.3997 11.127-9.0099 16.856-5.699 4.2639 2.3646 3.5283 4.63 9.4313 8.1961 3.15 1.5331 6.7987 1.3025 8.7081 1.3025l-0.10997-33.883-11.504-9.966z" fill="url(#linearGradient3230)" stroke="url(#linearGradient3232)" stroke-width="3"/>
  <g fill="none" stroke="#6080cc" stroke-width="2">
   <path d="m30 32h-23"/>
   <path d="m7 24h13"/>
   <path d="m30 48h-7"/>
   <path d="m7 28h13"/>
   <path d="m30 36h-23"/>
   <path d="m30 40h-23"/>
   <path d="m30 44h-23"/>
  </g>
 </g>
</svg>
