<?xml version="1.0" encoding="UTF-8"?>
<svg width="32" height="32" version="1.1" xmlns="http://www.w3.org/2000/svg">
 <g transform="translate(0 -1004.4)">
  <path d="m18.304 1010.4h2.1035c0.98531 0 1.5885 0.5331 1.5885 1.627v18.944c0 1.8673-1.0045 1.3864-1.6493 1.3879l-16.136 0.037c-1.7026 0-2.2101-0.2913-2.2101-2.062v-17.872c0-1.4323 0.31621-2.062 2.2101-2.062h1.3908l13.343 0.012" fill="#99cbff"/>
  <g stroke="#007af5" stroke-linejoin="round">
   <path d="m5.5 1008.2 0.00548 2.6692 12.979 0.018-5.44e-4 -2.8856s-0.0281-0.4326-0.37885-0.7475c-0.40895-0.3672-0.81768-0.3536-0.81768-0.3536l-2.7011-0.01s-0.12662-1.1043-0.88009-1.6045c-0.70069-0.4652-2.8267-0.5534-3.5949 0.127-0.56863 0.5036-0.65533 1.4773-0.65533 1.4773l-2.6204 0.01s-0.66736-0.029-0.94639 0.2875c-0.29263 0.2957-0.38939 0.575-0.38875 1.0115z" fill="#007af5" stroke-width="1px"/>
   <path d="m18.996 1009.4h1.5666c1.3504 0 2.4399 1.0035 2.4375 2.25l-0.01092 5.5913m-0.01545 14.029v0.2489c0 0.7379-0.31354 1.8544-1.6639 1.8544m-7.4758 0.026h-10.396c-1.3504 4e-4 -2.4375-1.0032-2.4375-2.2496v-19.5c0-1.2465 1.0871-2.25 2.4375-2.25h1.553" fill="none" stroke-linecap="round" stroke-width="2"/>
   <path d="m5.568 1013.9c-0.51367 0.545-0.55084 1.3941-0.55084 1.3941l-0.017193 13.057c1.0452-2.3105 3.7366-3.6388 5.9536-2.7405 1.4569 0.5218 2.9432 2.4666 4.2281 3.189 0.79619 0.4269 1.3759 0.504 1.8824 0.5199 0 0 0.69664-0.1466 1.2312-0.6405 0.67265-0.6214 0.7047-1.6201 0.7047-1.6201l-3e-3 -10.513-3.5848-3.211-8.4841-0.015s-0.76296-0.053-1.36 0.5809z" fill="#d6eaff" stroke-width="2"/>
  </g>
  <g fill="none" stroke="#007af5">
   <path d="m7.9627 1020.9h8"/>
   <path d="m7.9627 1016.9h5"/>
   <path d="m15.004 1013.2-0.0069 4.1542 3.9913 0.01" stroke-linejoin="round" stroke-width="2"/>
   <path d="m7.9627 1018.9h5"/>
   <path d="m7.9627 1022.9h8"/>
   <path d="m28.391 1018.1-4.1956 4.1583 2.8157 2.7412 4.0984-4.2408 0.11582-0.1226m-0.0057 8e-4c0.27737 0.7521 0.26473 1.0326 0.26473 1.7224 0 2.4853-2.0147 4.5-4.5 4.5s-4.5-2.0147-4.5-4.5 2.0147-4.5 4.5-4.5c0.7371 0 0.94796-0.1215 1.5061 0.1557" stroke-linecap="round" stroke-width="1px"/>
  </g>
  <g stroke="#007af5" stroke-linecap="round">
   <path d="m26.433 1026.3c-0.87128-0.1281-1.5664-0.4837-2.2149-1.133-0.80546-0.8066-1.1276-1.5263-1.1729-2.6209-0.01925-0.4644-0.0032-0.7162 0.06555-1.0284 0.31723-1.4407 1.4345-2.6088 2.8693-2.9999 0.35753-0.097 1.38-0.1561 1.6534-0.095l0.19707 0.044-1.8189 1.9467c-1.0004 1.0707-1.8189 1.9652-1.8189 1.9879 0 0.023 0.67048 0.6516 1.49 1.3979 0.81948 0.7462 1.552 1.4136 1.6279 1.483l0.13795 0.1263 3.4688-3.6656 0.0154 0.5243c0.03985 1.3573-0.56554 2.555-1.6931 3.3495-0.80479 0.5671-1.8554 0.8227-2.8066 0.6829z" fill="#007af5" stroke-linejoin="bevel"/>
   <path d="m24.164 1025.9-7.653 9.0087" fill="none" stroke-width="3"/>
   <circle cx="12" cy="1007.4" r="1.5" fill="#d6eaff" stroke-linejoin="bevel"/>
  </g>
 </g>
</svg>
