<?xml version="1.0" encoding="UTF-8"?>
<svg width="64px" height="64px" version="1.1" xmlns="http://www.w3.org/2000/svg" xmlns:osb="http://www.openswatchbook.org/uri/2009/osb" xmlns:xlink="http://www.w3.org/1999/xlink">
 <defs>
  <linearGradient id="linearGradient2141">
   <stop stop-color="#9e7640" offset="0"/>
   <stop stop-color="#deb887" offset="1"/>
  </linearGradient>
  <linearGradient id="linearGradient3770" x1="59.011" x2="26.491" y1="59.334" y2="39.322" gradientTransform="matrix(.88794 0 0 .88455 5.4848 -26.615)" gradientUnits="userSpaceOnUse">
   <stop stop-color="#f9deb0" offset="0"/>
   <stop stop-color="#fcefda" offset="1"/>
  </linearGradient>
  <linearGradient id="linearGradient3778" x1="55.545" x2="21" y1="63.273" y2="32" gradientTransform="matrix(.88794 0 0 .88455 5.4848 -26.615)" gradientUnits="userSpaceOnUse" xlink:href="#linearGradient2141"/>
  <linearGradient id="linearGradient4660" x1="63.815" x2="45.454" y1="63.398" y2="34.539" gradientTransform="matrix(.88062 0 0 .88867 7.0964 -25.312)" gradientUnits="userSpaceOnUse">
   <stop stop-color="#545454" stop-opacity=".37647" offset="0"/>
   <stop stop-opacity="0" offset="1"/>
  </linearGradient>
  <linearGradient id="linearGradient3784-3">
   <stop stop-opacity="0" offset="0"/>
   <stop stop-color="#545454" stop-opacity=".37647" offset="1"/>
  </linearGradient>
  <linearGradient id="linearGradient3228" x1="43.246" x2="43.41" y1="1010.7" y2="1052" gradientTransform="matrix(.98728 0 0 .98066 1.3049 20.852)" gradientUnits="userSpaceOnUse" xlink:href="#linearGradient3784-3"/>
  <linearGradient id="linearGradient3230" x1="4.2501" x2="42.709" y1="1003.5" y2="1043.1" gradientTransform="matrix(.97696 0 0 .97042 .064406 30.014)" gradientUnits="userSpaceOnUse">
   <stop stop-color="#eef3f6" offset="0"/>
   <stop stop-color="#abc3d2" offset="1"/>
  </linearGradient>
  <linearGradient id="linearGradient3232" x1="4.2501" x2="37.46" y1="1003.5" y2="1051.5" gradientTransform="matrix(.97696 0 0 .97042 .064406 30.014)" gradientUnits="userSpaceOnUse">
   <stop stop-color="#6c8ad0" offset="0"/>
   <stop stop-color="#203567" offset="1"/>
  </linearGradient>
  <linearGradient id="linearGradient1493" x1="39.846" x2="30.753" y1="19.744" y2="1.119" gradientTransform="matrix(.88463 0 0 .88463 7.3828 .00017367)" gradientUnits="userSpaceOnUse" xlink:href="#linearGradient2141"/>
  <linearGradient id="linearGradient1509" x1="38.514" x2="29.049" y1="20.935" y2=".83807" gradientTransform="matrix(.88463 0 0 .88463 7.3828 .00017367)" gradientUnits="userSpaceOnUse" xlink:href="#linearGradient2141"/>
  <linearGradient id="linearGradient1519" x1="39.002" x2="37.879" y1="3.8506" y2="22.103" gradientTransform="matrix(.88463 0 0 .88463 7.3828 .00017367)" gradientUnits="userSpaceOnUse" xlink:href="#linearGradient3784-3"/>
 </defs>
 <g>
  <rect x="18.885" y=".88614" width="42.46" height="28.306" fill="url(#linearGradient3770)" stroke="url(#linearGradient3778)" stroke-dashoffset="8.55" stroke-width="1.7693"/>
  <g fill="none">
   <path d="m20.666 30.949h42.43l0.0057-28.331" stroke="url(#linearGradient4660)" stroke-linecap="square" stroke-width="1.7965"/>
   <g>
    <path d="m21.496 2.9714 15.995 13.958c0.91068 0.7947 1.6406 1.2647 2.5994 1.2351 1.1271-0.03481 1.712-0.36808 2.9215-1.1487l18.675-15.061" stroke="url(#linearGradient1519)" stroke-width="1.7693"/>
    <path d="m19.357 1.5334 17.642 12.711c0.87146 0.62788 1.6219 1.2011 2.5702 1.2207 0.98866 0.02046 1.8348-0.55292 2.7301-1.1608l18.564-12.605" stroke="url(#linearGradient1493)" stroke-width="1.327"/>
    <path d="m19.712 1.7141 17.137 13.83c0.91703 0.74007 1.6586 1.1673 2.6185 1.2037 1.0191 0.03873 1.9567-0.36999 2.8687-1.0632l18.235-13.86" stroke="url(#linearGradient1509)" stroke-width="1.327"/>
   </g>
  </g>
  <g transform="matrix(1.085 0 0 1.085 -4.34 -1077.7)">
   <path d="m31.079 1007.5v9.4687h11.153m-34.999-9.6253v39.927c2.2514-6.38 11.164-8.9823 16.91-5.6815 4.2778 2.3574 3.5398 4.6158 9.4619 8.1711 3.7832 1.6518 6.8208 1.2983 8.7365 1.2983l-0.11033-33.779-11.542-9.9355z" fill="none" stroke="url(#linearGradient3228)" stroke-width="2.4678"/>
   <path d="m29.156 1005.8v9.4979h11.188m-35.106-9.6549v40.049c2.2583-6.3997 11.198-9.0099 16.962-5.699 4.2909 2.3646 3.5507 4.63 9.491 8.1961 3.17 1.5331 6.8418 1.3025 8.7633 1.3025l-0.11067-33.883-11.577-9.966z" fill="url(#linearGradient3230)" stroke="url(#linearGradient3232)" stroke-width="2.4754"/>
   <g fill="none" stroke="#6080cc">
    <path d="m34.073 1020.2h-23.116" stroke-width="1.7492"/>
    <path d="m23.704 1016h-12.74" stroke-width="1.7097"/>
    <path d="m10.952 1024.4h23.154" stroke-width="1.7507"/>
    <path d="m10.875 1028.8h23.115" stroke-width="1.7492"/>
    <path d="m10.912 1033.1h23.193" stroke-width="1.7522"/>
    <path d="m10.971 1011.8h12.761" stroke-width="1.711"/>
    <path d="m34.178 1037.5h-7.5643" stroke-width="1.8"/>
   </g>
  </g>
 </g>
</svg>
